HIERARCHY
ROOT Hips
{
	OFFSET 0.000000 0.000000 0.000000
	CHANNELS 6 Xposition Yposition Zposition Xrotation Yrotation Zrotation
	JOINT LeftUpLeg_virtual
	{
		OFFSET 0.000000 0.000000 0.000000
		CHANNELS 3 Xrotation Yrotation Zrotation
		JOINT LeftUpLeg
		{
			OFFSET 13.026900 -6.336304 -1.092800
			CHANNELS 3 Xrotation Yrotation Zrotation
			JOINT LeftLeg
			{
				OFFSET 0.524474 -46.096886 9.782700
				CHANNELS 3 Xrotation Yrotation Zrotation
				JOINT LeftFoot
				{
					OFFSET -0.524474 -53.427422 -12.948200
					CHANNELS 3 Xrotation Yrotation Zrotation
					JOINT LeftToeBase
					{
						OFFSET 0.192200 -14.009700 16.364100
						CHANNELS 3 Xrotation Yrotation Zrotation
						JOINT LeftToe_End
						{
							OFFSET -1.784700 -0.561700 9.474800
							CHANNELS 3 Xrotation Yrotation Zrotation
							End Site
							{
								OFFSET 0 0 0
							}
						}
					}
				}
			}
		}
	}
	JOINT RightUpLeg_virtual
	{
		OFFSET 0.000000 0.000000 0.000000
		CHANNELS 3 Xrotation Yrotation Zrotation
		JOINT RightUpLeg
		{
			OFFSET -12.883000 -6.336304 -1.092800
			CHANNELS 3 Xrotation Yrotation Zrotation
			JOINT RightLeg
			{
				OFFSET -0.524587 -46.096825 9.782800
				CHANNELS 3 Xrotation Yrotation Zrotation
				JOINT RightFoot
				{
					OFFSET 0.524587 -53.427383 -12.948300
					CHANNELS 3 Xrotation Yrotation Zrotation
					JOINT RightToeBase
					{
						OFFSET -0.192200 -14.009700 16.364100
						CHANNELS 3 Xrotation Yrotation Zrotation
						JOINT RightToe_End
						{
							OFFSET 1.784700 -0.561700 9.474800
							CHANNELS 3 Xrotation Yrotation Zrotation
							End Site
							{
								OFFSET 0 0 0
							}
						}
					}
				}
			}
		}
	}
	JOINT Spine_virtual
	{
		OFFSET 0.000000 0.000000 0.000000
		CHANNELS 3 Xrotation Yrotation Zrotation
		JOINT Spine
		{
			OFFSET 0.072000 7.257294 -0.789700
			CHANNELS 3 Xrotation Yrotation Zrotation
			JOINT Spine1
			{
				OFFSET 0.000000 12.508769 -0.658067
				CHANNELS 3 Xrotation Yrotation Zrotation
				JOINT Spine1_split
				{
					OFFSET 0.000000 12.508769 -0.658067
					CHANNELS 3 Xrotation Yrotation Zrotation
					JOINT Spine2
					{
						OFFSET 0.000000 12.508769 -0.658067
						CHANNELS 3 Xrotation Yrotation Zrotation
						JOINT Neck_virtual
						{
							OFFSET 0.000000 0.000000 0.000000
							CHANNELS 3 Xrotation Yrotation Zrotation
							JOINT Neck
							{
								OFFSET 0.000000 14.033295 7.520400
								CHANNELS 3 Xrotation Yrotation Zrotation
								JOINT Head
								{
									OFFSET 0.000000 8.198502 5.703100
									CHANNELS 3 Xrotation Yrotation Zrotation
									JOINT HeadTop_End
									{
										OFFSET 0.000000 17.760803 13.332701
										CHANNELS 3 Xrotation Yrotation Zrotation
										End Site
										{
											OFFSET 0 0 0
										}
									}
								}
							}
						}
						JOINT LeftShoulder_virtual
						{
							OFFSET 0.000000 0.000000 0.000000
							CHANNELS 3 Xrotation Yrotation Zrotation
							JOINT LeftShoulder
							{
								OFFSET 6.292450 5.785301 -0.669000
								CHANNELS 3 Xrotation Yrotation Zrotation
								JOINT LeftShoulder_split
								{
									OFFSET 6.292450 5.785301 -0.669000
									CHANNELS 3 Xrotation Yrotation Zrotation
									JOINT LeftArm
									{
										OFFSET 13.907140 -6.093903 1.965100
										CHANNELS 3 Xrotation Yrotation Zrotation
										JOINT LeftForeArm
										{
											OFFSET 34.140198 0.000000 0.000000
											CHANNELS 3 Xrotation Yrotation Zrotation
											JOINT LeftHand
											{
												OFFSET 40.960209 0.000000 0.000000
												CHANNELS 3 Xrotation Yrotation Zrotation
												End Site
												{
													OFFSET 0 0 0
												}
											}
										}
									}
								}
							}
						}
						JOINT RightShoulder_virtual
						{
							OFFSET 0.000000 0.000000 0.000000
							CHANNELS 3 Xrotation Yrotation Zrotation
							JOINT RightShoulder
							{
								OFFSET -6.292450 5.785301 -0.669000
								CHANNELS 3 Xrotation Yrotation Zrotation
								JOINT RightShoulder_split
								{
									OFFSET -6.292450 5.785301 -0.669000
									CHANNELS 3 Xrotation Yrotation Zrotation
									JOINT RightArm
									{
										OFFSET -13.907140 -6.093903 1.965100
										CHANNELS 3 Xrotation Yrotation Zrotation
										JOINT RightForeArm
										{
											OFFSET -34.140198 0.000000 0.000000
											CHANNELS 3 Xrotation Yrotation Zrotation
											JOINT RightHand
											{
												OFFSET -40.960209 0.000000 0.000000
												CHANNELS 3 Xrotation Yrotation Zrotation
												End Site
												{
													OFFSET 0 0 0
												}
											}
										}
									}
								}
							}
						}
					}
				}
			}
		}
	}
}
MOTION
Frames: 5
Frame Time: 0.03333333
5.696937 85.496857 163.448120 0.000000 0.000000 0.000000 5.848777 -22.837438 -0.000522 27.985703 22.979338 11.112218 29.718256 7.684642 -2.244309 -27.017075 7.534803 -33.264176 -27.341997 -1.207171 -5.432653 0.000000 0.000000 0.000000 8.271831 -19.133102 -0.137387 -77.549421 -4.343527 -8.676117 52.779880 0.688374 -3.598117 17.011968 6.922442 6.725947 -7.307755 2.490677 1.473738 0.000000 0.000000 0.000000 7.567984 -22.538069 2.076390 1.930240 -5.214218 0.240178 3.080134 -6.678824 0.757137 2.464121 -5.001580 0.670258 0.000000 0.000000 0.000000 4.145297 -6.254019 0.686725 13.005661 1.717212 11.428275 -1.496614 4.668340 -15.310533 0.000000 0.000000 0.000000 4.600579 -7.184161 0.086634 -2.539927 -15.685085 -17.113000 -5.758825 8.229805 -0.369822 -45.290581 -10.566250 -25.209725 -20.250256 -72.386440 9.396354 0.000000 0.000000 0.000000 3.795350 -6.228899 1.274089 -0.318530 -0.515836 -1.031526 -4.995870 -0.819590 -3.618495 -29.861068 41.787517 8.503801 47.868650 30.662519 -20.537081 0.000000 0.000000 0.000000 
4.791300 85.208366 169.750153 0.000000 0.000000 0.000000 9.024302 -26.435675 0.138759 33.477797 24.221212 8.931009 21.042087 10.240545 -1.043197 -25.910954 5.254628 -33.441911 -30.114782 -1.733716 -2.976518 0.000000 0.000000 0.000000 11.593039 -23.144892 0.179734 -77.000377 -3.804683 -3.936353 52.932040 -0.379296 -3.527728 13.700992 7.334056 5.252735 -7.183827 1.826078 1.847702 0.000000 0.000000 0.000000 10.152186 -27.418847 1.606210 2.033957 -7.866780 0.528152 3.325059 -10.165349 1.808041 2.086558 -3.287893 0.600380 0.000000 0.000000 0.000000 4.275233 -9.583596 2.041286 9.914475 4.798195 13.256802 0.994222 10.897572 -19.355226 0.000000 0.000000 0.000000 4.727718 -10.598274 1.533479 -4.367716 -20.799333 -17.698646 -6.364883 9.017591 -0.128343 -43.029160 -18.652360 -30.056879 -15.056126 -56.265302 10.528371 0.000000 0.000000 0.000000 3.838699 -9.638457 2.602205 -0.088133 -3.031318 5.698686 -4.199855 -1.016087 -3.647528 -20.312907 31.469120 0.612598 38.125713 23.758393 -9.161242 0.000000 0.000000 0.000000 
3.783989 85.171150 176.094864 0.000000 0.000000 0.000000 12.276855 -29.891783 0.407733 36.106012 27.172454 8.369924 16.394979 12.888814 -0.758532 -22.500822 1.922582 -31.204389 -28.418920 -2.583823 0.334524 0.000000 0.000000 0.000000 14.678550 -26.253249 0.416828 -76.215595 -2.615018 0.227571 53.871034 -1.269885 -3.442954 9.709216 7.802210 3.451050 -5.236928 1.510949 2.182895 0.000000 0.000000 0.000000 12.182607 -31.081623 0.933704 2.081618 -9.841843 0.764443 3.802450 -12.664694 2.784392 1.159467 -1.926362 0.500360 0.000000 0.000000 0.000000 4.834210 -11.951741 3.320112 6.203858 7.360156 15.005203 3.315063 15.690457 -22.225162 0.000000 0.000000 0.000000 5.030148 -12.940462 2.872674 -5.453314 -24.569422 -16.612741 -6.531004 8.606698 -0.140532 -41.706808 -26.973863 -35.621366 -12.462498 -40.963872 8.738510 0.000000 0.000000 0.000000 4.012000 -12.140731 3.685701 0.343870 -5.129039 10.038256 -3.170736 -0.672103 -2.755735 -17.281808 22.882853 -1.232377 31.202394 22.931875 -3.355990 0.000000 0.000000 0.000000 
2.969840 85.370140 182.022995 0.000000 0.000000 0.000000 14.933983 -33.826833 0.831015 34.369252 31.043917 10.351919 18.582197 14.768848 -1.867223 -14.392832 -3.192726 -27.268801 -22.724478 -3.149691 3.849554 0.000000 0.000000 0.000000 17.066686 -29.310124 0.607960 -75.279415 -1.169445 3.407234 55.196736 -1.764376 -3.330568 6.291887 8.573454 2.089633 -3.116060 1.534975 2.217070 0.000000 0.000000 0.000000 13.371170 -34.316281 0.058696 2.116776 -11.011429 1.028826 4.336501 -14.103474 3.502042 0.261495 -1.188637 0.334243 0.000000 0.000000 0.000000 5.540905 -13.299154 4.236579 2.360338 9.424135 16.663155 5.115395 19.257442 -23.898890 0.000000 0.000000 0.000000 5.285123 -14.207043 3.839563 -5.764016 -26.977531 -14.274123 -5.968650 7.381858 -0.526230 -42.731651 -34.109152 -42.211676 -10.800247 -29.447848 6.008161 0.000000 0.000000 0.000000 4.177242 -13.623625 4.360897 0.756859 -6.276391 12.069451 -1.868060 0.005254 -1.387810 -17.672259 16.586197 -0.259887 24.699142 26.168716 -0.385198 0.000000 0.000000 0.000000 
2.613077 85.920158 187.096771 0.000000 0.000000 0.000000 16.317286 -38.350433 1.223065 27.403974 34.291142 15.347141 28.019499 15.748408 -4.438224 -1.540800 -8.567113 -21.103013 -14.654478 -2.775713 6.038200 0.000000 0.000000 0.000000 18.181677 -32.987655 0.766996 -73.799484 0.293725 5.454528 55.839351 -1.516144 -3.309698 4.146214 9.683421 1.853953 -2.029864 1.760699 1.876954 0.000000 0.000000 0.000000 13.721470 -37.734138 -0.900014 2.225457 -11.356977 1.332260 4.739499 -14.584814 3.843960 -0.000079 -0.843480 0.818251 0.000000 0.000000 0.000000 6.104108 -13.767192 4.651387 -1.113389 11.104481 18.169738 6.299388 21.926813 -24.419470 0.000000 0.000000 0.000000 5.279387 -14.565389 4.222098 -5.482370 -28.072535 -11.448253 -4.747550 5.829464 -1.299563 -46.179093 -38.712734 -49.170959 -9.651925 -21.999199 3.090581 0.000000 0.000000 0.000000 4.233045 -14.141988 4.588130 1.040054 -6.073511 12.209469 -0.686324 0.093043 0.698571 -19.446829 12.372071 1.930949 17.739169 29.319847 1.435153 0.000000 0.000000 0.000000 
